<svg width="48" height="48" viewBox="0 0 48 48" fill="none" xmlns="http://www.w3.org/2000/svg">
<rect width="48" height="48" rx="24" fill="#3B3A3A"/>
<path d="M16 13C14.3431 13 13 14.3431 13 16V36.4141L18.1641 31.25H32C33.6569 31.25 35 29.9069 35 28.25V16C35 14.3431 33.6569 13 32 13H16ZM32 15C32.5523 15 33 15.4477 33 16V28.25C33 28.8023 32.5523 29.25 32 29.25H17.3359L15 31.5859V16C15 15.4477 15.4477 15 16 15H32ZM18.3975 24.2549C17.8933 24.3062 17.5 24.7323 17.5 25.25C17.5001 25.7676 17.8934 26.1938 18.3975 26.2451L18.5 26.25H29.5C30.0522 26.25 30.4999 25.8022 30.5 25.25C30.5 24.6977 30.0523 24.25 29.5 24.25H18.5L18.3975 24.2549ZM18.3975 21.1299C17.8933 21.1812 17.5 21.6073 17.5 22.125C17.5 22.6427 17.8933 23.0688 18.3975 23.1201L18.5 23.125H29.5C30.0523 23.125 30.5 22.6773 30.5 22.125C30.5 21.5727 30.0523 21.125 29.5 21.125H18.5L18.3975 21.1299ZM18.3975 18.0049C17.8933 18.0562 17.5 18.4823 17.5 19C17.5 19.5177 17.8933 19.9438 18.3975 19.9951L18.5 20H29.5C30.0523 20 30.5 19.5523 30.5 19C30.5 18.4477 30.0523 18 29.5 18H18.5L18.3975 18.0049Z" fill="white"/>
</svg>
